<svg width="94" height="16" viewBox="0 0 94 16" fill="none" xmlns="http://www.w3.org/2000/svg">
<path d="M0.498535 8.57493V6.69993L7.99854 3.39737V5.55469L2.86359 7.61612L2.93284 7.50426V7.7706L2.86359 7.65874L7.99854 9.72017V11.8775L0.498535 8.57493ZM15.0032 0.579545L11.4875 13.6406H9.53263L13.0483 0.579545H15.0032ZM20.0063 12H16.1391V1.09091H20.0382C21.1355 1.09091 22.0801 1.3093 22.872 1.74609C23.6639 2.17933 24.2729 2.80256 24.6991 3.61577C25.1288 4.42898 25.3436 5.40199 25.3436 6.5348C25.3436 7.67116 25.1288 8.64773 24.6991 9.46449C24.2729 10.2812 23.6604 10.908 22.8614 11.3448C22.0659 11.7816 21.1142 12 20.0063 12ZM18.4455 10.0238H19.9104C20.5922 10.0238 21.1657 9.90305 21.6309 9.66158C22.0997 9.41655 22.4512 9.03835 22.6856 8.52699C22.9235 8.01207 23.0425 7.34801 23.0425 6.5348C23.0425 5.72869 22.9235 5.06996 22.6856 4.55859C22.4512 4.04723 22.1014 3.67081 21.6362 3.42933C21.171 3.18786 20.5975 3.06712 19.9157 3.06712H18.4455V10.0238ZM27.0095 12V3.81818H29.2787V12H27.0095ZM28.1495 2.76349C27.8121 2.76349 27.5227 2.65163 27.2812 2.42791C27.0433 2.20064 26.9243 1.92898 26.9243 1.61293C26.9243 1.30043 27.0433 1.03232 27.2812 0.808594C27.5227 0.581321 27.8121 0.467684 28.1495 0.467684C28.4868 0.467684 28.7745 0.581321 29.0124 0.808594C29.2539 1.03232 29.3746 1.30043 29.3746 1.61293C29.3746 1.92898 29.2539 2.20064 29.0124 2.42791C28.7745 2.65163 28.4868 2.76349 28.1495 2.76349ZM34.8252 12.1598C33.9835 12.1598 33.2591 11.9893 32.6519 11.6484C32.0482 11.304 31.583 10.8175 31.2563 10.1889C30.9296 9.55682 30.7662 8.8093 30.7662 7.94638C30.7662 7.10476 30.9296 6.36612 31.2563 5.73047C31.583 5.09482 32.0428 4.59943 32.6359 4.24432C33.2325 3.8892 33.932 3.71165 34.7346 3.71165C35.2744 3.71165 35.7769 3.79865 36.2421 3.97266C36.7108 4.14311 37.1192 4.40057 37.4672 4.74503C37.8188 5.08949 38.0922 5.52273 38.2875 6.04474C38.4828 6.56321 38.5805 7.17045 38.5805 7.86648V8.4897H31.6717V7.08345H36.4445C36.4445 6.75675 36.3734 6.46733 36.2314 6.2152C36.0894 5.96307 35.8923 5.76598 35.6401 5.62393C35.3916 5.47834 35.1021 5.40554 34.7719 5.40554C34.4274 5.40554 34.122 5.48544 33.8557 5.64524C33.5929 5.80149 33.3869 6.01278 33.2378 6.27912C33.0886 6.5419 33.0123 6.83487 33.0087 7.15803V8.49503C33.0087 8.89986 33.0833 9.24964 33.2325 9.54439C33.3852 9.83913 33.6 10.0664 33.877 10.2262C34.154 10.386 34.4825 10.4659 34.8624 10.4659C35.1146 10.4659 35.3454 10.4304 35.5549 10.3594C35.7644 10.2884 35.9438 10.1818 36.0929 10.0398C36.2421 9.89773 36.3557 9.72372 36.4338 9.51776L38.5325 9.65625C38.426 10.1605 38.2076 10.6009 37.8774 10.9773C37.5506 11.3501 37.1281 11.6413 36.6096 11.8509C36.0947 12.0568 35.4999 12.1598 34.8252 12.1598ZM43.7474 15.2386C43.0123 15.2386 42.382 15.1374 41.8564 14.935C41.3344 14.7362 40.9189 14.4645 40.61 14.12C40.301 13.7756 40.1004 13.3885 40.008 12.9588L42.1068 12.6765C42.1707 12.8398 42.2719 12.9925 42.4104 13.1346C42.5489 13.2766 42.7318 13.3903 42.959 13.4755C43.1899 13.5643 43.4704 13.6087 43.8006 13.6087C44.2943 13.6087 44.7009 13.4879 45.0205 13.2464C45.3436 13.0085 45.5052 12.609 45.5052 12.0479V10.5511H45.4093C45.3099 10.7784 45.1607 10.9933 44.9619 11.1957C44.763 11.3981 44.5073 11.5632 44.1948 11.6911C43.8823 11.8189 43.5095 11.8828 43.0762 11.8828C42.4619 11.8828 41.9026 11.7408 41.3983 11.4567C40.8976 11.169 40.4981 10.7305 40.1998 10.141C39.9051 9.54794 39.7577 8.79865 39.7577 7.89311C39.7577 6.96626 39.9086 6.19212 40.2104 5.57067C40.5123 4.94922 40.9136 4.48402 41.4143 4.17507C41.9185 3.86612 42.4707 3.71165 43.0709 3.71165C43.529 3.71165 43.9125 3.78977 44.2215 3.94602C44.5304 4.09872 44.779 4.29048 44.9672 4.52131C45.159 4.74858 45.3063 4.9723 45.4093 5.19247H45.4945V3.81818H47.7477V12.0799C47.7477 12.7759 47.5773 13.3583 47.2364 13.8271C46.8955 14.2958 46.4232 14.6474 45.8195 14.8817C45.2193 15.1197 44.5286 15.2386 43.7474 15.2386ZM43.7953 10.1783C44.1611 10.1783 44.47 10.0877 44.7222 9.90661C44.9778 9.72195 45.1732 9.45916 45.3081 9.11825C45.4466 8.77379 45.5158 8.36186 45.5158 7.88246C45.5158 7.40305 45.4484 6.98757 45.3134 6.63601C45.1785 6.28089 44.9832 6.00568 44.7275 5.81037C44.4718 5.61506 44.1611 5.5174 43.7953 5.5174C43.4225 5.5174 43.1082 5.61861 42.8525 5.82102C42.5968 6.01989 42.4033 6.29687 42.2719 6.65199C42.1405 7.0071 42.0748 7.41726 42.0748 7.88246C42.0748 8.35476 42.1405 8.76314 42.2719 9.1076C42.4068 9.44851 42.6004 9.71307 42.8525 9.90128C43.1082 10.0859 43.4225 10.1783 43.7953 10.1783ZM53.2502 12.1598C52.4228 12.1598 51.7073 11.984 51.1036 11.6325C50.5034 11.2773 50.04 10.7837 49.7133 10.1516C49.3866 9.51598 49.2232 8.77912 49.2232 7.94105C49.2232 7.09588 49.3866 6.35724 49.7133 5.72514C50.04 5.08949 50.5034 4.59588 51.1036 4.24432C51.7073 3.8892 52.4228 3.71165 53.2502 3.71165C54.0776 3.71165 54.7914 3.8892 55.3916 4.24432C55.9953 4.59588 56.4604 5.08949 56.7872 5.72514C57.1139 6.35724 57.2772 7.09588 57.2772 7.94105C57.2772 8.77912 57.1139 9.51598 56.7872 10.1516C56.4604 10.7837 55.9953 11.2773 55.3916 11.6325C54.7914 11.984 54.0776 12.1598 53.2502 12.1598ZM53.2609 10.402C53.6373 10.402 53.9516 10.2955 54.2037 10.0824C54.4558 9.86577 54.6458 9.57102 54.7737 9.19815C54.9051 8.82528 54.9707 8.40092 54.9707 7.92507C54.9707 7.44922 54.9051 7.02486 54.7737 6.65199C54.6458 6.27912 54.4558 5.98437 54.2037 5.76776C53.9516 5.55114 53.6373 5.44283 53.2609 5.44283C52.8809 5.44283 52.5613 5.55114 52.3021 5.76776C52.0464 5.98437 51.8528 6.27912 51.7215 6.65199C51.5936 7.02486 51.5297 7.44922 51.5297 7.92507C51.5297 8.40092 51.5936 8.82528 51.7215 9.19815C51.8528 9.57102 52.0464 9.86577 52.3021 10.0824C52.5613 10.2955 52.8809 10.402 53.2609 10.402ZM58.7953 12V1.09091H66.0183V2.99254H61.1018V5.59197H65.5389V7.49361H61.1018V12H58.7953ZM70.6552 12.1598C69.8136 12.1598 69.0892 11.9893 68.4819 11.6484C67.8782 11.304 67.413 10.8175 67.0863 10.1889C66.7596 9.55682 66.5963 8.8093 66.5963 7.94638C66.5963 7.10476 66.7596 6.36612 67.0863 5.73047C67.413 5.09482 67.8729 4.59943 68.466 4.24432C69.0625 3.8892 69.7621 3.71165 70.5647 3.71165C71.1044 3.71165 71.6069 3.79865 72.0721 3.97266C72.5409 4.14311 72.9493 4.40057 73.2973 4.74503C73.6488 5.08949 73.9223 5.52273 74.1176 6.04474C74.3129 6.56321 74.4106 7.17045 74.4106 7.86648V8.4897H67.5018V7.08345H72.2745C72.2745 6.75675 72.2035 6.46733 72.0615 6.2152C71.9194 5.96307 71.7223 5.76598 71.4702 5.62393C71.2216 5.47834 70.9322 5.40554 70.602 5.40554C70.2575 5.40554 69.9521 5.48544 69.6858 5.64524C69.423 5.80149 69.217 6.01278 69.0679 6.27912C68.9187 6.5419 68.8424 6.83487 68.8388 7.15803V8.49503C68.8388 8.89986 68.9134 9.24964 69.0625 9.54439C69.2152 9.83913 69.4301 10.0664 69.7071 10.2262C69.9841 10.386 70.3125 10.4659 70.6925 10.4659C70.9446 10.4659 71.1755 10.4304 71.385 10.3594C71.5945 10.2884 71.7738 10.1818 71.923 10.0398C72.0721 9.89773 72.1858 9.72372 72.2639 9.51776L74.3626 9.65625C74.2561 10.1605 74.0377 10.6009 73.7074 10.9773C73.3807 11.3501 72.9581 11.6413 72.4397 11.8509C71.9248 12.0568 71.3299 12.1598 70.6552 12.1598ZM75.8914 12V3.81818H78.0913V5.24574H78.1765C78.3257 4.73793 78.576 4.3544 78.9276 4.09517C79.2792 3.83239 79.684 3.70099 80.1421 3.70099C80.2557 3.70099 80.3782 3.7081 80.5096 3.7223C80.641 3.73651 80.7564 3.75604 80.8559 3.78089V5.79439C80.7493 5.76243 80.602 5.73402 80.4138 5.70916C80.2255 5.6843 80.0533 5.67188 79.8971 5.67188C79.5633 5.67188 79.265 5.74467 79.0022 5.89027C78.7429 6.03232 78.537 6.23118 78.3843 6.48686C78.2351 6.74254 78.1606 7.03729 78.1606 7.37109V12H75.8914ZM82.4179 12.1385C82.0664 12.1385 81.7645 12.0142 81.5124 11.7656C81.2638 11.5135 81.1395 11.2116 81.1395 10.8601C81.1395 10.5121 81.2638 10.2138 81.5124 9.9652C81.7645 9.71662 82.0664 9.59233 82.4179 9.59233C82.7588 9.59233 83.0571 9.71662 83.3128 9.9652C83.5685 10.2138 83.6963 10.5121 83.6963 10.8601C83.6963 11.0945 83.636 11.3093 83.5152 11.5046C83.398 11.6964 83.2436 11.8509 83.0518 11.968C82.86 12.0817 82.6487 12.1385 82.4179 12.1385ZM93.5015 8.57493L86.0015 11.8775V9.72017L91.1364 7.65874L91.0672 7.7706V7.50426L91.1364 7.61612L86.0015 5.55469V3.39737L93.5015 6.69993V8.57493Z" fill="black"/>
</svg>
